<?xml version="1.0" encoding="UTF-8"?>
<svg width="200" height="200" viewBox="0 0 200 200" xmlns="http://www.w3.org/2000/svg">
  <!-- Gradient Background -->
  <defs>
    <linearGradient id="grad1" x1="0%" y1="0%" x2="100%" y2="100%">
      <stop offset="0%" style="stop-color:#3B82F6;stop-opacity:1" />
      <stop offset="100%" style="stop-color:#1E40AF;stop-opacity:1" />
    </linearGradient>
  </defs>

  <!-- Background Circle with Gradient -->
  <circle cx="100" cy="100" r="90" fill="url(#grad1)" />

  <!-- Modern Book Shape -->
  <path d="M55,65 L145,65 C150,65 150,70 145,70 L55,70 C50,70 50,65 55,65 Z" fill="#FFFFFF" />
  <path d="M55,70 L145,70 L145,140 C145,145 140,145 140,140 L60,140 C55,140 55,135 60,135 L55,70 Z" fill="#FFFFFF" />

  <!-- Book Pages Lines -->
  <path d="M70,80 L130,80" stroke="#E5E7EB" stroke-width="2" />
  <path d="M70,95 L130,95" stroke="#E5E7EB" stroke-width="2" />
  <path d="M70,110 L130,110" stroke="#E5E7EB" stroke-width="2" />
  <path d="M70,125 L100,125" stroke="#E5E7EB" stroke-width="2" />

  <!-- Graduation Cap -->
  <path d="M60,50 L140,50 L100,30 Z" fill="#FFFFFF" />
  <path d="M95,30 L105,30 L105,45 L100,50 L95,45 Z" fill="#FFFFFF" />

  <!-- Text -->
  <text x="100" y="175" font-family="Arial" font-size="22" font-weight="bold" text-anchor="middle" fill="#FFFFFF">IIM-LMS</text>
</svg>
