<svg width="174" height="174" viewBox="0 0 174 174" fill="none" xmlns="http://www.w3.org/2000/svg">
<path d="M84.3319 2.10499C83.0652 2.38004 81.6832 2.6551 81.239 2.73599C80.4493 2.88161 80.038 2.99487 78.5574 3.4479C78.0803 3.59352 77.5703 3.70677 77.4058 3.70677C77.2248 3.70677 76.8793 3.82003 76.6161 3.94947C76.3693 4.07891 76.0238 4.19217 75.8758 4.19217C75.5796 4.19217 74.2635 4.59666 73.4245 4.93643C73.1283 5.06587 72.7664 5.16295 72.6348 5.16295C72.4867 5.16295 72.1412 5.26002 71.8616 5.38946C71.5654 5.50272 71.0061 5.72923 70.5948 5.89103C68.0941 6.84563 68.2586 6.73238 68.4396 7.3472C68.7851 8.4636 69.1141 9.64472 69.2128 10.1786C69.2622 10.4861 69.3774 10.8097 69.4432 10.9067C69.509 10.9876 69.6077 11.3598 69.6735 11.7157C69.7393 12.0717 69.8545 12.5409 69.9367 12.7674C70.0025 12.9939 70.1835 13.5764 70.3316 14.0618C70.4632 14.5472 70.7099 15.4209 70.8745 15.9872C71.187 17.0712 71.4338 17.3139 71.9274 17.0065C72.0919 16.8932 72.3222 16.8123 72.4374 16.8123C72.6841 16.8123 74.4938 16.1004 74.6583 15.9386C74.7077 15.8901 74.8887 15.8415 75.0532 15.8415C75.2177 15.8415 75.5961 15.7445 75.8922 15.615C76.7477 15.2591 79.6103 14.3854 79.9229 14.3854C80.0874 14.3854 80.4329 14.2721 80.6961 14.1427C80.9429 14.0132 81.2884 13.9 81.4364 13.9C81.601 13.9 82.0452 13.8029 82.4564 13.6735C85.9442 12.6056 87.6223 12.6056 91.4062 13.6896C91.8668 13.8029 92.6071 14.0132 93.0513 14.1427C94.9926 14.6766 97.3617 15.4047 97.8717 15.615C98.1678 15.7445 98.5462 15.8415 98.6943 15.8415C98.8588 15.8415 99.0562 15.9063 99.1549 15.971C99.303 16.1004 100.586 16.602 101.738 16.9903C102.429 17.233 102.676 17.0712 102.676 16.3755C102.676 16.1813 102.741 15.9872 102.824 15.9386C102.906 15.8739 103.021 15.5341 103.087 15.1458C103.153 14.7737 103.284 14.175 103.416 13.8191C103.531 13.4631 103.761 12.7027 103.909 12.1202C104.074 11.5377 104.304 10.7449 104.419 10.3404C104.518 9.93595 104.781 9.06225 104.962 8.39888C105.16 7.73551 105.308 7.08833 105.308 6.97507C105.308 6.78091 104.584 6.40878 103.251 5.92339C102.889 5.79395 102.297 5.58362 101.935 5.438C100.619 4.95261 98.1349 4.19217 97.8717 4.19217C97.7236 4.19217 97.3946 4.07891 97.1478 3.94947C96.8846 3.82003 96.5062 3.70677 96.2923 3.70677C96.0784 3.70677 95.7659 3.62588 95.5849 3.54498C95.4204 3.4479 94.9597 3.30228 94.5813 3.22138C94.1865 3.14049 93.3639 2.94633 92.7223 2.81689C90.8139 2.38004 86.8984 1.60342 86.7503 1.6196C86.6845 1.6196 85.5987 1.84611 84.3319 2.10499Z" fill="white"/>
<path d="M63.1093 8.83575C62.8461 8.98137 62.5006 9.15934 62.369 9.24024C62.2373 9.30496 62.007 9.41822 61.8754 9.46676C61.4477 9.62856 58.3876 11.1494 57.3512 11.7157C56.8083 12.007 56.1009 12.3953 55.7883 12.5571C54.7683 13.1072 53.9128 13.5926 53.4521 13.8676C51.3299 15.162 48.6976 16.8285 48.056 17.2977C47.6282 17.6051 47.1018 17.9773 46.9044 18.1067C45.6376 18.9481 41.1627 22.362 40.0934 23.3004L39.4353 23.899L40.0769 24.6271C40.7679 25.4037 42.0347 26.7952 44.8808 29.9502C45.835 31.0019 46.7069 31.8594 46.8221 31.8594C46.9373 31.8594 47.3157 31.6006 47.6611 31.2931C49.2241 29.8855 56.6273 24.6109 57.927 23.9638C58.1573 23.8667 58.6673 23.5593 59.0786 23.2842C59.4899 23.0253 59.967 22.7341 60.1644 22.6532C60.3454 22.5723 60.987 22.2163 61.5628 21.8766C62.1386 21.5368 63.6357 20.7602 64.8861 20.1453C66.1364 19.5305 67.1399 18.9481 67.1399 18.8186C67.1399 18.6892 66.9425 17.9611 66.7122 17.1845C66.4654 16.3917 66.2515 15.5827 66.2022 15.3562C66.1528 15.1296 65.9061 14.2236 65.6428 13.3337C65.3632 12.4438 65.0341 11.3112 64.9025 10.8259C64.3267 8.78721 64.2609 8.64159 63.9319 8.60923C63.7509 8.57688 63.389 8.69013 63.1093 8.83575Z" fill="white"/>
<path d="M109.339 8.70632C109.289 8.78721 109.174 9.17553 109.092 9.56384C109.009 9.95215 108.829 10.6641 108.697 11.1494C108.565 11.6348 108.368 12.3629 108.269 12.7674C108.17 13.1719 108.022 13.6088 107.94 13.7544C107.858 13.9 107.743 14.3045 107.677 14.6443C107.628 15.0002 107.364 15.9225 107.101 16.7314C106.344 19.029 106.262 18.8672 108.894 20.1453C110.128 20.7602 111.675 21.5692 112.316 21.9413C112.958 22.3296 113.534 22.637 113.583 22.637C113.632 22.637 114.11 22.9121 114.636 23.2518C115.162 23.6078 115.788 23.9799 116.051 24.1094C117.35 24.7566 125.149 30.3709 126.119 31.3417C126.399 31.6167 126.728 31.8594 126.876 31.8594C127.106 31.8594 127.978 30.9534 130.314 28.2837C130.808 27.7174 131.696 26.7467 132.256 26.1157C132.832 25.5008 133.522 24.7242 133.786 24.4006L134.246 23.8181L133.572 23.268C133.193 22.9606 132.618 22.4914 132.305 22.2325C131.812 21.8119 129.459 19.9836 128.916 19.5952C127.929 18.8995 127.09 18.2847 126.169 17.6213C125.56 17.1683 125.033 16.8123 124.984 16.8123C124.935 16.8123 124.441 16.5049 123.865 16.1166C122.5 15.2267 122.533 15.2591 119.95 13.7382C117.153 12.0879 117.581 12.3144 113.205 10.0978C110.424 8.69014 109.552 8.36654 109.339 8.70632Z" fill="white"/>
<path d="M86.6023 17.6537C86.2239 18.1391 85.8784 19.7409 85.8784 21.0676C85.8619 21.8442 85.7797 22.5238 85.6974 22.5723C85.5987 22.637 85.171 22.3134 84.7432 21.8604C83.131 20.1615 80.9758 19.2716 78.9193 19.4658C77.34 19.6114 76.7148 19.7409 76.5174 19.9674C76.3858 20.1292 76.5174 20.2424 77.1096 20.4366C77.5374 20.5822 78.0145 20.6955 78.1461 20.6955C78.508 20.7116 81.0087 21.9575 82.111 22.6694C82.6045 22.993 83.2626 23.5269 83.5752 23.8343C84.0523 24.3197 84.1016 24.4168 83.8713 24.5139C83.7068 24.5624 83.4929 24.5462 83.3777 24.4491C83.131 24.2388 82.0945 23.8667 80.5645 23.4136C79.6267 23.1386 79.0838 23.1062 77.2742 23.1548C75.2177 23.2033 75.0696 23.2357 74.0003 23.7534C73.3916 24.0608 72.6348 24.5786 72.3222 24.9183C71.6641 25.6464 71.5654 25.9862 72.1248 25.6788C72.388 25.5332 73.737 25.4846 77.1754 25.4846H81.8642L82.6045 25.9215C83.0158 26.1642 83.279 26.3583 83.1803 26.3583C81.9958 26.3745 80.1532 26.7467 79.2813 27.135C77.85 27.766 76.0403 29.7561 76.8958 29.7561C77.0109 29.7561 77.1754 29.6914 77.2742 29.6105C77.6196 29.2869 80.4658 28.4779 81.6668 28.3646C82.769 28.2675 82.9335 28.2837 82.9335 28.5102C82.9335 28.6559 82.7197 28.8824 82.4564 29.028C81.749 29.3839 81.0087 30.5489 80.8771 31.5197C80.8113 31.9727 80.8113 32.3448 80.8606 32.3448C80.9264 32.3448 81.2226 32.1021 81.5187 31.8109C82.5387 30.8401 83.0981 30.3871 83.8055 30.0635C84.1839 29.8855 84.6281 29.659 84.7761 29.5781C85.1545 29.3839 85.171 29.3839 85.4671 29.6914C85.6974 29.9179 85.7303 30.8078 85.7303 37.0855C85.7468 42.4895 85.7961 44.3016 85.9442 44.4796C86.1416 44.7223 87.6387 45.774 87.7868 45.774C87.8361 45.774 87.869 42.1821 87.869 37.7812C87.869 28.8338 87.8361 29.1251 88.9549 29.6428C89.2674 29.8046 89.5965 29.9179 89.6952 29.9179C89.942 29.9179 90.9455 30.6621 91.8504 31.5035C92.2616 31.8918 92.6894 32.1668 92.7716 32.1183C93.0349 31.9565 92.821 30.8725 92.3768 30.2091C92.1629 29.8855 91.7352 29.4163 91.4062 29.1574C91.0936 28.9147 90.8303 28.6073 90.8303 28.4779C90.8303 27.9439 94.4004 28.6397 96.391 29.5457C97.0655 29.8532 97.1807 29.7561 96.8517 29.1574C96.4897 28.4617 95.4533 27.6042 94.3839 27.1026C93.6107 26.7467 91.7516 26.3745 90.5836 26.3583C90.5013 26.3583 90.7481 26.1642 91.1594 25.9215L91.8997 25.4846H96.5884C100.06 25.4846 101.376 25.5332 101.656 25.6788C102.182 25.97 102.1 25.7112 101.425 24.9345C100.191 23.5107 97.4933 22.7826 94.7458 23.1224C93.331 23.2842 92.5249 23.4945 91.7681 23.8667C91.5049 23.9961 91.1758 24.0932 91.0113 24.0932C90.8633 24.0932 90.5836 24.2064 90.4026 24.3359C90.0736 24.5462 89.8432 24.5139 89.8432 24.255C89.8432 24.0285 90.7316 23.268 91.8833 22.5238C93.15 21.6986 94.9597 20.8896 96.4733 20.4528C97.2301 20.2424 97.3946 20.1453 97.2465 19.9674C97.1478 19.8541 96.8023 19.7085 96.4568 19.66C93.1665 19.1098 91.1594 19.6923 89.0865 21.7795C88.5436 22.3296 88.0336 22.7503 87.9842 22.6856C87.9184 22.637 87.869 21.8927 87.8526 21.0352C87.8526 18.8671 87.1452 16.9741 86.6023 17.6537Z" fill="white"/>
<path d="M105.258 23.3813C105.209 23.446 105.258 23.7372 105.39 24.0447C105.949 25.3552 105.588 27.0379 104.502 28.0896C104.074 28.5264 102.396 29.4325 102.034 29.4325C101.952 29.4325 101.804 29.5457 101.688 29.6752C101.573 29.8046 101.376 29.9179 101.261 29.9179C100.52 29.9179 96.8188 32.9597 95.1736 34.9174C94.68 35.4999 94.1865 36.0985 94.0713 36.228C93.5284 36.859 92.9526 37.7327 92.311 38.8652C91.9326 39.561 91.5213 40.1111 91.3733 40.1111C91.2416 40.1111 90.7974 39.8037 90.4026 39.4154C89.9913 39.0432 89.58 38.7358 89.4813 38.7358C89.3497 38.7358 89.3003 39.4315 89.3168 41.001C89.3332 42.9749 89.3661 43.2823 89.6294 43.4764C89.9749 43.7191 89.9913 44.7546 89.6623 45.7416C89.5471 46.0652 89.4155 46.7771 89.3661 47.311C89.3003 47.9906 89.2016 48.298 89.0207 48.3304C88.8891 48.3465 88.3626 47.9906 87.869 47.5376C86.2897 46.0976 82.5552 43.9295 81.0416 43.5735C80.7784 43.5088 80.4658 43.4117 80.3835 43.3308C80.2848 43.2661 79.8735 43.1529 79.4787 43.0881C79.0674 43.0396 78.3271 42.8778 77.8335 42.7645C76.6161 42.4571 72.388 42.4571 70.9403 42.7807C70.348 42.9102 69.4103 43.0881 68.8674 43.169C67.4854 43.3794 66.0541 43.7353 63.1093 44.5767C58.7331 45.8549 56.1667 46.1785 54.3405 45.6931C53.2547 45.4018 51.8563 44.6414 51.2641 43.9942C50.9515 43.6544 51.0337 43.2499 51.6424 42.1335C51.8399 41.7614 51.9057 41.1951 51.9057 39.7066V37.765L51.2476 36.5839C50.425 35.063 50.1947 34.9336 49.3392 35.516C47.6118 36.6972 46.4108 39.0432 46.4108 41.2598C46.4108 42.716 47.3486 44.9326 48.5166 46.1946C49.1253 46.858 50.8528 48.2009 51.0995 48.2009C51.1653 48.2009 51.5273 48.3465 51.9057 48.5083C53.2876 49.1393 54.0115 49.2526 56.4957 49.2364C58.7002 49.2364 58.9141 49.2526 58.9141 49.5276C58.9141 49.6733 58.7002 50.0454 58.4534 50.3366C57.8941 50.9838 56.5286 53.1681 56.3641 53.7182C56.2983 53.9285 56.1338 54.2521 56.0186 54.4301C55.887 54.6081 55.7883 54.8993 55.7883 55.1096C55.7883 55.3038 55.7225 55.4979 55.6402 55.5465C55.5579 55.6112 55.4099 55.9995 55.3112 56.4202C55.2125 56.8409 55.015 57.5366 54.8834 57.9896C54.7518 58.4265 54.5544 59.1222 54.4557 59.5267C54.3405 59.9312 54.1595 60.4813 54.0444 60.7725C53.9128 61.0476 53.8141 61.3874 53.8141 61.533C53.8141 61.6624 53.7154 62.0184 53.5837 62.3096C53.4521 62.6008 53.2383 63.1024 53.1231 63.4098C51.8563 66.7105 49.7011 69.5096 47.2334 71.0304C44.5682 72.6808 40.6856 73.0367 37.9382 71.8718C35.1579 70.7068 33.5291 68.7329 32.8382 65.7073C32.542 64.413 32.542 64.3159 32.8382 62.795C33.3975 59.8503 34.4998 57.6498 36.293 55.8701C37.3295 54.8346 38.4482 54.2198 39.9617 53.8476C40.735 53.6535 40.9653 53.6696 42.0182 53.9285C44.5024 54.5595 46.1476 56.2908 46.4602 58.5721C46.6247 59.737 46.4273 59.8826 45.0124 59.5752C43.1534 59.1869 39.9288 59.5591 39.0075 60.2548C38.8759 60.368 38.6292 60.4975 38.4811 60.546C38.0534 60.6916 38.1192 61.2417 38.6127 61.5815C39.2214 62.0022 39.6656 62.4229 39.6656 62.5846C39.6656 62.6656 39.3201 62.9568 38.8924 63.2318C37.3295 64.2188 36.7701 64.8498 37.1979 65.1087C37.4611 65.2705 39.1556 65.675 39.5834 65.675C40.0769 65.675 40.4882 65.8368 40.4882 66.0147C40.4882 66.0956 40.3072 66.5487 40.0769 67.0017C39.8466 67.4709 39.6985 67.9401 39.7314 68.0534C39.863 68.377 42.1827 68.3123 43.4495 67.9563C46.4437 67.0988 48.0395 65.5779 49.6353 62.0345C49.8657 61.5168 49.9315 60.9505 49.915 59.2031C49.915 57.0674 49.8986 56.9865 49.3721 55.9024C48.2369 53.5726 46.9208 52.1973 44.8808 51.1942C43.7785 50.6602 43.5976 50.5308 43.6634 50.2396C44.2721 47.845 44.3214 47.3919 44.0582 46.1785C43.795 45.0135 42.9889 43.3308 42.6434 43.2176C42.5282 43.1852 42.4624 43.4764 42.4624 44.0266C42.4624 44.5119 42.2814 45.418 42.0676 46.0814C41.3272 48.3142 39.9946 49.6894 37.3624 50.9676C34.7795 52.2297 32.6243 54.2198 31.0778 56.7923C30.5678 57.6175 29.7782 59.5914 29.6301 60.3357C29.5478 60.7402 29.4162 61.355 29.3175 61.7109C29.0543 62.6817 29.0872 65.8529 29.3669 66.6781C29.4985 67.0664 29.6465 67.6165 29.7123 67.9239C29.7782 68.2314 30.0085 68.8138 30.2388 69.2183C30.8804 70.3994 30.7653 70.5936 29.3011 70.7068C27.1623 70.8848 25.3526 72.1468 24.2339 74.234C23.4443 75.6902 23.5923 75.8196 25.1059 75.043C25.7968 74.7032 26.4878 74.412 26.6523 74.412C26.8004 74.412 26.9978 74.3473 27.0801 74.2664C27.3762 74.0075 29.1859 73.7648 30.7653 73.7648C32.6407 73.781 33.8582 74.0075 35.635 74.7194C38.5469 75.8843 38.8595 75.9491 41.7221 75.9491C44.1734 75.9491 44.4531 75.9167 45.7363 75.496C47.3979 74.9459 48.0889 74.6062 49.6189 73.6354C51.7412 72.2763 53.5508 70.2538 54.6202 68.0534C54.867 67.5356 55.0973 67.2929 55.2618 67.3253C55.4099 67.3577 55.7883 67.8916 56.1173 68.5064C57.8447 71.8556 60.6744 74.1046 64.919 75.5122C66.1528 75.9167 66.4161 75.9491 69.1964 75.9491C72.4703 75.9491 72.8816 75.8682 74.8064 74.8165C78.5409 72.7617 80.4658 68.6035 79.5774 64.5424C79.199 62.8112 78.2777 61.0799 77.1096 59.9474C76.1884 59.0251 76.2048 58.831 77.2413 58.3132C77.8829 57.9896 79.1497 56.857 79.6761 56.1451C80.2519 55.3523 81.0087 53.7344 80.91 53.4755C80.7619 53.1195 80.0051 53.1519 78.9522 53.5402C77.8171 53.9771 77.3564 54.1874 76.7971 54.5595C76.0567 55.0449 75.8593 54.8346 75.8593 53.5887C75.8593 52.2944 75.5303 50.822 75.119 50.191L74.8229 49.7542L74.2635 50.3852C73.4574 51.3074 72.9803 52.1973 72.6512 53.3622C72.5361 53.7667 72.3716 54.1227 72.2564 54.155C72.1577 54.1874 71.8616 53.9771 71.6148 53.6858C70.2822 52.1002 68.4232 50.8058 68.1435 51.2427C67.8967 51.6472 68.127 53.7505 68.5712 54.8831C68.8015 55.4818 68.9332 56.0319 68.8838 56.0804C68.8345 56.1451 68.1435 56.1128 67.3538 56.0319C65.8238 55.8539 63.8496 56.0642 63.7344 56.3878C63.5864 56.8085 66.087 59.0413 66.6957 59.0413C66.8109 59.0413 67.0741 59.2031 67.3044 59.3811C67.6993 59.6885 67.6993 59.7208 67.4196 59.8988C67.2551 60.0121 66.6793 60.368 66.1528 60.6916C65.1986 61.3065 63.7344 62.9406 63.9154 63.2157C64.0799 63.4745 65.8896 63.5716 67.3867 63.3936C68.1928 63.3127 68.9003 63.2966 68.9825 63.3775C69.0483 63.4422 69.0154 63.7981 68.8838 64.1379C68.2586 65.9177 68.0941 67.746 68.5383 68.1019C68.999 68.4741 70.8087 67.0502 71.9109 65.4485C72.4374 64.688 73.0625 63.0539 73.0625 62.439C73.079 61.3712 73.6877 61.4197 74.7242 62.5685C75.5303 63.4584 75.9416 64.3321 76.1884 65.6426C76.5009 67.3738 75.81 69.3963 74.4116 70.7554C73.4409 71.7262 72.75 72.0659 71.2364 72.3895C69.7064 72.697 69.2622 72.697 67.5019 72.3734C65.8896 72.0821 65.0999 71.7747 63.1422 70.7392C62.6486 70.4803 60.9047 68.83 60.2796 68.021C59.7202 67.3091 58.947 65.7235 58.5192 64.413C58.1409 63.248 58.1244 59.4296 58.4863 58.4103C58.6344 58.022 58.7496 57.5689 58.7496 57.4072C58.7496 56.5496 60.658 53.0548 61.8754 51.6472C64.0964 49.1232 66.449 47.667 70.019 46.6477C71.4503 46.2432 75.6619 46.227 77.2577 46.6315C79.1168 47.1007 81.0581 47.8935 82.0287 48.5569C84.4635 50.2557 86.4542 52.44 87.5071 54.5919C88.3461 56.2584 88.6423 58.4265 88.3791 60.7402C88.05 63.6849 87.03 65.7073 84.4965 68.5064C82.8842 70.2862 82.3084 71.0952 81.6339 72.5028C80.6468 74.59 80.3506 75.8196 80.1532 78.6187L80.0545 80.1558H49.2076H18.3607L18.3936 79.5895C18.4265 78.7643 19.0681 75.9814 19.5617 74.4929C19.6439 74.2178 19.8578 73.5383 20.0059 72.9558C20.1704 72.3734 20.5488 71.1761 20.8613 70.2862C21.1739 69.3963 21.5359 68.377 21.651 68.021C21.7826 67.6651 22.0294 66.9693 22.2268 66.484C22.4242 65.9986 22.6381 65.4161 22.7039 65.1896C22.7862 64.9631 23.033 64.3644 23.2797 63.879C23.5101 63.3775 23.7075 62.9244 23.7075 62.8597C23.7075 62.795 24.0365 62.0831 24.4478 61.2741C24.8591 60.4651 25.1881 59.7532 25.1881 59.6723C25.1881 59.6076 25.402 59.1707 25.6817 58.7177C26.241 57.7793 26.3068 57.2939 25.8956 57.1645C25.583 57.0674 25.3856 56.9865 24.1681 56.4687C23.7404 56.2746 23.2962 56.129 23.181 56.129C23.0494 56.129 22.8849 56.0642 22.8026 55.9833C22.7039 55.9024 22.2268 55.6759 21.7333 55.4818C21.2397 55.2876 20.6146 55.0287 20.3349 54.9155C20.0717 54.8022 19.2491 54.4624 18.5252 54.1712C17.8013 53.88 17.0445 53.5402 16.8471 53.4108C16.6333 53.2813 16.37 53.2166 16.2384 53.2652C15.9916 53.3622 14.7413 55.8054 13.5897 58.4265C13.4745 58.7177 13.2278 59.284 13.0468 59.6885C12.7013 60.4489 12.2407 61.6139 11.3852 63.8952C11.089 64.6556 10.7436 65.5132 10.6119 65.8044C10.4968 66.0956 10.3816 66.4192 10.3816 66.5325C10.3816 66.7752 9.42742 69.8008 9.13129 70.4965C8.99967 70.7878 8.90096 71.1922 8.90096 71.3864C8.90096 71.5806 8.80225 72.0174 8.67064 72.3895C8.44032 73.0367 8.14419 74.234 7.68354 76.4345C7.55193 77.0493 7.3216 78.1171 7.17354 78.7805C6.94321 79.8807 6.92676 83.3432 6.95967 113.729L7.00902 147.463H86.882H166.755L166.804 113.729C166.837 88.5207 166.804 79.816 166.656 79.2659C166.557 78.8614 166.376 78.0201 166.261 77.4052C166.146 76.7742 165.916 75.7549 165.768 75.1401C165.62 74.5091 165.422 73.7001 165.34 73.3118C165.274 72.9396 165.126 72.4866 165.027 72.3248C164.945 72.1468 164.863 71.8718 164.863 71.6938C164.863 71.5158 164.666 70.8039 164.435 70.1082C164.205 69.4125 163.942 68.5711 163.876 68.2637C163.744 67.7298 162.658 64.7042 161.902 62.7626C161.293 61.177 161.063 60.5946 160.915 60.1253C160.832 59.8665 160.701 59.5752 160.618 59.4781C160.536 59.3649 160.405 59.106 160.339 58.8795C160.273 58.653 159.714 57.4395 159.088 56.1775C158.463 54.9317 157.953 53.8153 157.953 53.7182C157.953 53.6211 157.805 53.4755 157.641 53.3784C157.394 53.2652 157.032 53.3461 156.028 53.7829C154.301 54.5595 154.219 54.5919 153.182 54.9964C152.689 55.1744 152.096 55.4171 151.866 55.5141C151.636 55.6112 151.208 55.7892 150.928 55.9024C150.632 56.0319 150.139 56.226 149.859 56.3555C148.954 56.7438 148.181 57.0674 147.885 57.1645C147.441 57.2939 147.523 57.6822 148.395 59.4458C148.839 60.3357 149.3 61.3226 149.448 61.6301C149.579 61.9375 149.875 62.6008 150.106 63.0862C150.78 64.5262 151.619 66.6134 152.294 68.5873C152.524 69.2507 152.771 69.9464 152.837 70.1244C152.919 70.3024 153.084 70.8525 153.232 71.3379C153.38 71.8232 153.692 72.8426 153.939 73.603C154.597 75.7387 155.321 78.8129 155.37 79.6704L155.403 80.1558L124.491 80.2043C93.7423 80.2367 93.5613 80.2367 93.2158 79.9131C92.8046 79.5248 91.9491 77.8745 91.5871 76.7742C91.0113 74.9945 91.3239 72.2763 92.3604 70.2538C92.9362 69.1698 93.5449 67.4386 93.9562 65.8853C94.2194 64.8336 94.2852 64.057 94.2852 61.9213C94.2852 59.1222 94.351 59.5105 93.1007 54.7537C92.64 52.9577 92.6071 48.3789 93.0513 46.5829C93.5449 44.5605 94.2523 42.7969 95.5355 40.4347C96.1607 39.2859 98.0855 36.9237 99.4181 35.6455C102.873 32.3287 107.068 30.8725 111 31.6006C111.806 31.7624 112.695 31.9565 112.958 32.0536C113.813 32.361 114.916 32.8302 115.179 32.992C115.31 33.0891 115.574 33.2185 115.755 33.2994C117.087 33.8981 119.374 36.4221 120.312 38.3313C121.71 41.1789 121.743 44.9488 120.41 47.0845C119.868 47.9582 118.584 49.0908 117.597 49.56C117.038 49.8189 116.577 49.8836 115.097 49.8836C113.386 49.8998 113.238 49.8674 112.399 49.4144C111.313 48.8319 109.914 47.5052 109.914 47.0683C109.914 46.7771 110.029 46.7447 111.198 46.7447C112.366 46.7447 113.04 46.5991 114.521 46.0652C115.146 45.8387 116.84 44.7708 117.137 44.4149C117.581 43.8971 115.689 43.1852 113.83 43.1852C112.349 43.1852 112.037 43.0234 112.366 42.5057C113.04 41.4702 113.386 40.6288 113.616 39.5933C113.813 38.6711 113.813 38.396 113.649 38.299C113.369 38.121 113.155 38.1372 112.793 38.396C112.612 38.5093 112.267 38.6549 112.037 38.7034C111.806 38.7682 111.082 39.2536 110.441 39.7875C109.717 40.3699 109.223 40.6774 109.19 40.5641C109.158 40.4509 109.026 39.9493 108.878 39.4639C108.73 38.9785 108.565 38.396 108.499 38.1695C108.434 37.943 108.22 37.5061 108.022 37.1987C107.825 36.8913 107.628 36.503 107.562 36.3412C107.381 35.8396 107.035 36.0176 106.492 36.8913C106.295 37.2149 106.13 37.6194 106.13 37.7974C106.13 37.9592 106.048 38.1857 105.933 38.299C105.834 38.396 105.703 38.9785 105.653 39.5771C105.538 40.9039 105.324 41.001 104.403 40.192C103.548 39.4477 102.083 38.7034 101.359 38.6225L100.784 38.574L100.8 39.3183C100.833 40.0949 101.606 41.907 102.281 42.7969C102.495 43.072 102.626 43.347 102.56 43.3956C102.511 43.4603 101.919 43.5088 101.244 43.5088C99.632 43.5088 97.5755 44.1722 97.5755 44.7061C97.592 45.1268 100.57 46.7447 101.343 46.7447C101.491 46.7447 101.705 46.8256 101.82 46.9389C101.968 47.0845 101.754 47.3919 100.948 48.2333C99.8952 49.3335 98.9575 50.822 99.1385 51.1133C99.4181 51.5663 102.133 51.1133 103.383 50.4175C104.206 49.9645 105.472 48.9775 105.637 48.6863C105.933 48.1524 106.509 48.2818 106.871 48.9614C107.496 50.1263 109.223 51.6957 110.77 52.4885C111.559 52.893 112.431 53.2166 112.695 53.2166C113.369 53.2166 114.027 53.4917 114.027 53.7667C114.027 54.0094 112.777 54.6242 110.737 55.4009C109.536 55.8539 109.092 56.0319 107.43 56.8247C106.558 57.2454 105.785 57.5851 105.703 57.5851C105.62 57.5851 105.341 57.6984 105.061 57.844C104.37 58.2161 101.639 58.2161 100.948 57.844C100.685 57.6984 100.372 57.5851 100.29 57.5851C100.191 57.5851 99.7307 57.2454 99.2536 56.8409C98.7765 56.4364 98.3159 56.1613 98.2172 56.226C97.921 56.3878 98.1349 58.2161 98.5297 58.9604C98.8752 59.6399 99.4839 60.2548 100.257 60.7402C100.504 60.8858 100.701 61.0961 100.701 61.177C100.701 61.2741 100.405 61.7757 100.043 62.2772C99.2372 63.4584 98.941 64.1379 98.6449 65.5779C98.3323 67.0179 98.3323 67.7298 98.6449 69.1536C99.451 72.9396 102.462 75.6578 106.213 75.9652C109.454 76.2403 112.579 74.5414 114.159 71.6615C114.29 71.4349 114.471 70.7068 114.587 70.0435C114.949 67.746 114.225 65.2867 112.728 63.7658C112.037 63.0862 111.559 62.8921 111.559 63.2966C111.559 63.5716 111.099 64.51 110.918 64.6233C110.836 64.6556 110.424 64.4615 109.997 64.1703C108.499 63.1671 108.269 63.0539 108.17 63.3289C108.121 63.4584 108.154 64.1217 108.236 64.8174C108.335 65.497 108.368 66.128 108.318 66.2089C108.269 66.2898 107.841 66.306 107.364 66.2413C106.887 66.1927 106.443 66.2089 106.394 66.2898C106.278 66.484 106.821 67.9239 107.381 68.8785C107.628 69.2992 108.22 70.0111 108.697 70.448C109.19 70.901 109.585 71.354 109.585 71.4349C109.585 71.7585 109.026 72.0821 107.989 72.3895C107.019 72.6646 106.92 72.6646 105.949 72.3895C104.683 72.0498 103.86 71.5482 103.218 70.7392C102.149 69.4125 101.804 68.1343 102.067 66.4516C102.396 64.2512 104.781 61.8566 108.269 60.2224C110.293 59.284 110.868 59.0413 111.099 59.0413C111.23 59.0413 111.477 58.928 111.658 58.7986C111.823 58.6692 112.069 58.5559 112.168 58.5559C112.366 58.5559 113.517 58.0705 115.179 57.2939C115.491 57.1483 116.067 56.8247 116.462 56.582C116.857 56.3393 117.318 56.129 117.515 56.129C117.795 56.129 117.828 56.1937 117.729 56.5658C117.663 56.8247 117.564 58.4588 117.531 60.2386C117.466 62.8597 117.499 63.5878 117.712 64.235C117.86 64.6556 117.976 65.1249 117.976 65.2543C117.976 65.3837 118.074 65.7397 118.206 66.0309C119.506 69.008 119.95 70.2862 119.95 71.0628C119.95 72.5837 118.815 74.5738 117.515 75.3181C116.544 75.8843 116.758 76.0947 118.222 75.9814C119.802 75.8682 121.036 75.2857 122.204 74.1208L123.092 73.2147L123.536 73.4898C124.836 74.2987 126.185 74.9783 127.386 75.4313C128.735 75.9167 128.768 75.9167 132.042 75.9329C135.316 75.9329 135.349 75.9329 137.142 75.3828C138.145 75.0915 139.067 74.7841 139.198 74.7194C140.695 73.9428 144.808 73.7325 146.684 74.3149C147.77 74.6547 149.365 75.3666 149.497 75.5769C149.546 75.6417 149.645 75.7064 149.744 75.7064C150.024 75.7064 149.892 75.043 149.382 73.9751C148.872 72.8911 147.572 71.4511 146.75 71.0628C145.746 70.5774 144.792 70.2053 144.545 70.2053C144.101 70.2053 144.084 69.7846 144.496 69.0403C145.203 67.8107 145.45 66.7752 145.45 65.1249C145.45 64.2835 145.384 63.5393 145.285 63.4907C145.203 63.4422 145.121 63.248 145.121 63.07C145.121 62.4067 143.953 60.5136 142.999 59.6561C141.847 58.6044 139.939 57.6498 138.721 57.5204C137.389 57.391 137.257 57.1806 137.734 56.0157C138.08 55.2067 138.129 54.8184 138.112 53.2166C138.112 51.7119 138.047 51.2265 137.783 50.6279L137.438 49.916L136.698 50.644C136.023 51.3074 135.118 52.8768 134.839 53.8153C134.691 54.3168 134.345 54.2845 133.983 53.7505C133.128 52.4885 130.857 50.6926 130.528 51.0162C130.462 51.0809 130.397 51.6796 130.413 52.3267C130.413 53.4755 130.611 54.3816 131.055 55.4171C131.186 55.7083 131.236 55.9833 131.186 56.0319C131.005 56.1937 130.397 56.1451 130.183 55.9348C129.969 55.7245 127.123 55.5465 126.448 55.7083C126.201 55.773 126.037 55.9186 126.037 56.1128C126.037 56.7114 128.159 58.6853 129.212 59.0898C129.36 59.1384 129.492 59.3487 129.492 59.5267C129.492 59.7047 129.36 59.8988 129.212 59.9474C129.048 59.9959 128.801 60.1092 128.669 60.1901C128.538 60.271 128.258 60.4004 128.044 60.4975C127.6 60.6754 126.086 62.0507 125.856 62.4714C125.741 62.6979 125.807 62.795 126.185 63.0053C126.777 63.2966 129.327 63.3451 130.133 63.07C130.89 62.8112 131.071 63.0377 130.726 63.8305C130.38 64.6233 129.821 66.759 129.821 67.2929C129.821 68.1343 130.051 68.2314 131.005 67.7298C131.877 67.2929 133.259 66.1118 133.72 65.3999C134.148 64.7689 134.181 64.8013 135.02 66.8075C135.513 67.9725 136.451 69.2345 136.829 69.2345C136.944 69.2345 137.208 68.8947 137.405 68.4579C137.718 67.8107 137.767 67.4062 137.783 65.7559C137.783 63.7334 137.751 63.604 136.862 61.8566C136.385 60.9505 136.55 60.7563 137.701 60.8696C140.185 61.0799 141.896 62.9244 141.88 65.3676C141.88 66.2251 141.781 66.6296 141.353 67.4871C139.906 70.3671 136.994 72.3248 133.506 72.794C129.146 73.3765 124.639 70.9981 122.483 66.9693C121.924 65.9338 121.562 65.0116 121.184 63.6525C120.855 62.4552 120.92 58.475 121.315 56.6952C121.71 54.8669 121.94 53.9771 122.171 53.4593C122.286 53.1843 122.434 52.7959 122.483 52.5694C122.582 52.1002 123.454 49.6571 123.602 49.3982C123.668 49.3011 123.783 48.9452 123.882 48.5892C124.227 47.1492 124.721 46.0167 125.001 46.0167C125.099 46.0167 125.461 46.2755 125.823 46.5829C128.422 48.9452 131.861 49.3659 134.279 47.6184C134.723 47.311 135.085 46.9065 135.085 46.7609C135.085 46.4373 133.967 45.3533 133.111 44.8517C132.141 44.2854 130.462 43.9295 129.245 44.0427C128.225 44.1398 128.176 44.1236 127.666 43.6382C126.382 42.36 125.395 40.7744 123.602 37.0369C122.006 33.7201 119.193 30.9534 115.969 29.481C114.159 28.6559 112.053 28.1381 109.914 27.9925L108.516 27.8954L108.467 27.41C108.434 27.135 108.302 26.5363 108.17 26.0671C107.891 25.1287 106.92 23.9961 106.015 23.5431C105.423 23.2518 105.407 23.2518 105.258 23.3813ZM33.7101 100.202C33.7266 102.079 33.6772 103.503 33.5949 103.584C33.5127 103.665 32.6572 103.73 31.6865 103.713C30.5514 103.697 29.844 103.746 29.6959 103.875C29.4985 104.037 29.4656 105.623 29.4656 113.89C29.4656 122.158 29.4985 123.744 29.6959 123.906C29.844 124.035 30.5349 124.084 31.6536 124.067C32.6078 124.051 33.4633 124.1 33.562 124.148C33.8582 124.326 33.8088 130.458 33.5127 130.701C33.2495 130.911 18.5581 130.895 18.3442 130.669C18.1797 130.507 18.081 125.928 18.2126 124.844L18.3113 124.084H20.1375C21.1575 124.084 22.0788 124.019 22.1939 123.954C22.4901 123.76 22.4901 104.021 22.1775 103.827C22.0788 103.762 21.1575 103.697 20.1375 103.697H18.3113L18.2126 103.082C18.081 102.257 18.1797 97.3386 18.3442 97.0959C18.4429 96.9503 20.2033 96.9018 26.0601 96.9341L33.6608 96.9827L33.7101 100.202ZM56.1008 97.1283C56.2325 97.2739 56.2818 98.3094 56.2489 100.477L56.1996 103.616L54.176 103.665C52.1853 103.713 52.1524 103.713 52.0044 104.118C51.9057 104.361 51.8399 108.276 51.8399 113.89C51.8399 119.505 51.9057 123.42 52.0044 123.663C52.1524 124.067 52.1853 124.067 54.176 124.116L56.1996 124.165L56.2325 127.239C56.2654 129.002 56.216 130.41 56.1173 130.555C55.887 130.928 40.883 130.928 40.6527 130.555C40.4717 130.264 40.4388 124.585 40.6198 124.294C40.6856 124.181 41.4424 124.1 42.6598 124.051C43.7127 124.035 44.6176 123.954 44.6834 123.889C44.7492 123.825 44.7985 119.327 44.7985 113.874C44.7821 105.865 44.7492 103.94 44.5682 103.843C44.4531 103.762 43.5318 103.697 42.5282 103.697C40.9982 103.697 40.6692 103.649 40.5869 103.438C40.5376 103.293 40.4882 101.885 40.4882 100.299C40.4882 97.8887 40.5376 97.371 40.7514 97.1606C40.9818 96.9341 41.903 96.9018 48.4508 96.9018C54.5873 96.9018 55.9528 96.9341 56.1008 97.1283ZM78.5738 97.2739C78.7055 97.4842 79.0016 98.1961 79.2319 98.8595C79.4622 99.5229 79.7255 100.202 79.7913 100.38C79.8735 100.558 80.1697 101.351 80.4658 102.16C80.7455 102.953 81.091 103.859 81.2226 104.15C81.3542 104.441 81.4529 104.749 81.4529 104.846C81.4529 104.943 81.5516 105.25 81.6832 105.526C81.8148 105.817 81.9464 106.189 81.9958 106.367C82.0452 106.545 82.3577 107.419 82.6868 108.308C83.0158 109.198 83.3613 110.185 83.46 110.493C83.5423 110.8 83.6739 111.124 83.7232 111.221C83.789 111.302 84.1345 112.256 84.5129 113.324C86.5858 119.181 86.6023 119.246 86.849 119.197C87.0794 119.149 87.4578 118.227 88.6094 114.942C89.1687 113.356 89.4155 112.709 89.5307 112.515C89.5965 112.418 89.6952 112.094 89.761 111.787C89.8268 111.48 89.942 111.14 90.0078 111.059C90.0736 110.962 90.2216 110.638 90.3039 110.331C90.4026 110.023 90.7316 109.069 91.0442 108.228C91.3568 107.386 91.7681 106.221 91.9655 105.639C92.1629 105.056 92.3933 104.441 92.4755 104.264C92.5578 104.086 92.7881 103.471 92.9855 102.888C93.1665 102.306 93.4297 101.61 93.5449 101.351C93.66 101.076 94.022 100.122 94.3346 99.1993C94.6471 98.2932 95.0255 97.4033 95.19 97.2253C95.4862 96.9179 95.7165 96.9018 102.939 96.9018C110.194 96.9018 110.408 96.9179 110.572 97.2253C110.688 97.4195 110.72 98.6653 110.704 100.575L110.655 103.616L108.68 103.697C107.595 103.746 106.608 103.843 106.509 103.908C106.344 104.005 106.295 106.189 106.295 113.89C106.295 121.592 106.344 123.776 106.509 123.873C106.608 123.938 107.595 124.035 108.68 124.084L110.655 124.165L110.704 127.271C110.737 129.924 110.704 130.394 110.474 130.62C110.26 130.847 109.487 130.879 104.156 130.879C100.586 130.879 97.921 130.814 97.6578 130.717L97.2465 130.555L97.2794 127.368L97.3288 124.165L98.1843 124.116C98.6449 124.084 99.1055 123.97 99.2043 123.857C99.451 123.566 99.3852 106.949 99.1385 106.885C99.0562 106.868 98.793 107.402 98.5626 108.066C98.3323 108.729 98.102 109.344 98.0362 109.441C97.9868 109.522 97.8717 109.862 97.773 110.169C97.6743 110.477 97.3288 111.463 96.9997 112.353C96.6707 113.243 96.2594 114.408 96.0784 114.942C95.8975 115.476 95.6836 116.058 95.6013 116.236C95.5191 116.414 95.2888 117.029 95.0913 117.612C94.9104 118.194 94.6471 118.89 94.5155 119.181C94.3839 119.456 94.2852 119.747 94.2852 119.812C94.2852 119.942 93.3639 122.482 93.1171 123.032C93.0349 123.21 92.7881 123.906 92.5578 124.569C92.0807 125.977 91.291 128.177 91.0278 128.824C90.9126 129.083 90.8304 129.342 90.8304 129.423C90.8304 129.827 90.2216 130.733 89.9255 130.814C89.2674 130.976 83.6081 130.814 83.4271 130.62C83.2626 130.458 82.6703 128.889 81.8806 126.591C81.749 126.236 81.42 125.329 81.1239 124.569C80.8442 123.809 80.548 122.967 80.4493 122.708C80.3671 122.433 80.2355 122.077 80.1532 121.899C80.0545 121.721 79.8077 121.026 79.5774 120.362C79.1168 119.003 78.36 116.851 78.2119 116.479C77.9651 115.897 77.1425 113.599 77.0109 113.162C76.8464 112.612 76.4022 111.383 76.2048 110.897C76.139 110.719 75.958 110.315 75.8264 110.007C75.6948 109.7 75.4151 108.875 75.2012 108.195C74.4116 105.72 74.3787 106.027 74.3787 115.347V123.922L74.7571 124.003C74.9545 124.035 75.4151 124.1 75.7771 124.116L76.4351 124.165L76.4845 127.368L76.5174 130.555L76.1061 130.717C75.8429 130.814 73.1612 130.879 69.5419 130.879C64.5241 130.879 63.356 130.831 63.208 130.653C63.0764 130.507 63.027 129.471 63.0599 127.303L63.1093 124.165L65.0835 124.084L67.0577 124.003V113.89V103.778L65.0835 103.697L63.1093 103.616L63.0599 100.461C63.0435 98.7301 63.0599 97.2253 63.0928 97.1121C63.1586 96.9503 64.7544 96.9018 70.7428 96.9018H78.3271L78.5738 97.2739ZM146.404 97.0312C146.552 97.1445 146.602 97.9211 146.569 100.397L146.519 103.616L144.989 103.665C143.805 103.697 143.443 103.762 143.361 103.956C143.278 104.183 143.607 105.072 144.496 107.095C144.677 107.499 144.874 107.969 144.956 108.147C145.022 108.325 145.253 108.875 145.45 109.36C145.647 109.845 145.976 110.606 146.19 111.059C146.388 111.496 146.717 112.272 146.914 112.758C147.112 113.243 147.342 113.793 147.424 113.971C147.556 114.246 147.918 115.088 148.395 116.236C148.477 116.414 148.888 117.401 149.316 118.421C149.727 119.44 150.188 120.492 150.303 120.767C150.435 121.026 150.747 121.754 151.027 122.385C151.307 123 151.603 123.631 151.685 123.76C151.784 123.954 152.228 124.019 153.659 124.051L155.485 124.1L155.453 127.449L155.403 130.798H147.753H140.103L140.054 127.578C140.037 125.702 140.087 124.278 140.169 124.197C140.251 124.116 141.107 124.051 142.061 124.067C143.41 124.1 143.821 124.051 143.903 123.873C144.002 123.614 142.39 119.861 142.11 119.683C141.995 119.618 139.017 119.553 135.464 119.553H129.015L128.686 119.974C128.488 120.217 128.34 120.492 128.34 120.621C128.34 120.734 128.241 121.026 128.11 121.285C127.978 121.527 127.797 121.916 127.715 122.142C127.616 122.369 127.419 122.822 127.254 123.161C127.106 123.501 127.041 123.825 127.09 123.889C127.156 123.954 128.044 124.035 129.048 124.084L130.89 124.165L130.94 127.303C130.972 129.471 130.923 130.507 130.791 130.653C130.643 130.847 129.278 130.879 123.158 130.879C117.038 130.879 115.672 130.847 115.524 130.653C115.393 130.507 115.343 129.471 115.376 127.303L115.426 124.165L117.301 124.084L119.177 124.003L119.473 123.485C119.637 123.21 120.032 122.336 120.361 121.543C120.707 120.767 121.069 119.893 121.184 119.634C121.644 118.566 121.776 118.259 122.582 116.317C123.52 114.085 123.553 114.004 124.063 112.839C124.573 111.674 124.622 111.593 125.543 109.36C126.021 108.244 126.514 107.095 126.629 106.82C126.761 106.529 126.975 106.059 127.106 105.768C127.221 105.477 127.452 104.959 127.6 104.619C127.748 104.296 127.814 103.94 127.764 103.859C127.715 103.762 126.975 103.697 126.119 103.697H124.573L124.474 103.163C124.408 102.872 124.392 101.416 124.425 99.9274C124.458 97.7269 124.523 97.1768 124.721 97.0636C125.017 96.8694 146.092 96.8532 146.404 97.0312Z" fill="white"/>
<path d="M135.102 104.781C134.888 105.364 134.51 106.27 134 107.37C133.868 107.645 133.769 107.904 133.769 107.952C133.769 108.033 133.358 108.956 132.618 110.574C132.19 111.496 131.828 112.58 131.91 112.661C132.091 112.823 139.001 112.774 139.116 112.596C139.165 112.515 139.067 112.111 138.869 111.722C138.688 111.318 138.54 110.962 138.54 110.913C138.54 110.881 138.31 110.347 138.03 109.732C137.372 108.308 137.241 108.001 136.385 105.93C135.99 104.975 135.579 104.183 135.497 104.183C135.398 104.183 135.217 104.458 135.102 104.781Z" fill="white"/>
<path d="M62.1222 26.8275C58.6344 27.8954 56.4628 30.6459 56.4464 33.979C56.4464 37.3281 58.7002 40.1758 62.2209 41.2275C62.9777 41.454 65.1164 41.454 66.1035 41.2275C67.6499 40.8553 69.1141 40.4023 69.1964 40.2567C69.2622 40.1758 69.4596 40.1111 69.6571 40.1111C69.8545 40.0949 70.3151 39.9654 70.6771 39.7875C71.039 39.6095 71.4338 39.48 71.549 39.4639C71.6642 39.4639 71.878 39.3991 72.0425 39.3182C72.8487 38.9138 73.6055 38.6549 73.9838 38.6549C74.1977 38.6549 74.6584 38.5416 74.9874 38.4122C75.4151 38.2342 76.2048 38.1695 77.9158 38.1695C79.6268 38.1695 80.4165 38.2342 80.8442 38.4122C81.1732 38.5416 81.6339 38.6549 81.8478 38.6549C82.2261 38.6549 82.9829 38.9138 83.8055 39.3344C83.97 39.4153 84.1674 39.4315 84.2497 39.383C84.3484 39.3182 84.4142 38.5254 84.4142 37.6032C84.4142 35.9205 84.4142 35.9043 83.97 35.6778C83.7068 35.5646 82.9007 35.3057 82.1603 35.1115C80.2519 34.6261 75.5632 34.6261 73.7206 35.0954C73.0461 35.2733 72.3387 35.4837 72.1577 35.5646C71.9767 35.6455 71.4667 35.8396 71.0061 35.9852C69.6735 36.4221 68.3903 36.9237 68.2093 37.0693C68.127 37.134 67.9132 37.1987 67.7158 37.1987C67.5348 37.1987 67.1728 37.3281 66.8932 37.4738C66.5148 37.6841 65.9554 37.7488 64.5077 37.7488C62.6651 37.765 62.5993 37.7488 61.8754 37.2796C61.4806 37.0046 60.9212 36.4544 60.6415 36.0661C60.1973 35.4028 60.148 35.2248 60.148 34.0113C60.148 32.3448 60.3125 32.1345 61.168 32.6522C62.8461 33.623 63.1586 33.7039 65.248 33.7201H67.2222L67.1728 33.3479C67.1564 33.1376 66.9919 32.7817 66.8109 32.5551C66.6464 32.3448 66.5312 32.0698 66.5806 31.9565C66.6628 31.7462 67.5677 31.374 68.0119 31.374C68.16 31.374 68.5383 31.2122 68.8674 31.0343C69.3938 30.7268 69.4267 30.6621 69.2129 30.4194C69.0812 30.2738 68.5548 29.9502 68.0448 29.6913C67.5348 29.4486 67.0741 29.1251 67.0248 28.9956C66.9754 28.8662 67.1564 28.5264 67.469 28.219C67.7816 27.9116 67.9625 27.5718 67.9132 27.4424C67.617 26.6819 63.8661 26.2936 62.1222 26.8275Z" fill="white"/>
<path d="M34.4669 28.4617C32.5256 30.3224 31.7195 31.1799 30.1236 32.992C29.5314 33.6554 28.8075 34.4805 28.4949 34.8203C28.1823 35.1439 27.804 35.5969 27.6723 35.8073C27.5243 36.0176 27.0801 36.5839 26.6852 37.0531C26.2904 37.5385 25.8298 38.1048 25.6652 38.3313C25.5007 38.5578 25.0401 39.1403 24.6617 39.6257C24.2668 40.1111 23.7733 40.7744 23.5594 41.0818C23.3455 41.3893 22.852 42.085 22.4736 42.6189C21.6181 43.8162 18.8213 48.2333 18.5746 48.7672C18.3113 49.3497 18.4759 49.5438 19.5288 49.9645C20.0717 50.1587 20.7462 50.4337 21.0259 50.5631C21.322 50.6926 21.8484 50.9191 22.1775 51.0647C22.523 51.2103 23.0001 51.4207 23.2468 51.5501C23.4772 51.6634 23.7568 51.7604 23.8391 51.7604C23.9378 51.7604 24.5136 51.987 25.1388 52.262C26.5043 52.8607 27.0636 53.1034 27.8533 53.4269L28.462 53.6858L29.0707 52.6827C31.1766 49.2202 35.9475 42.7322 37.2966 41.4863C37.3788 41.3893 37.9382 40.7744 38.514 40.1111C39.0898 39.4477 40.4224 38.0401 41.4753 36.9884C42.5118 35.9367 43.4002 35.0468 43.4166 35.0145C43.5153 34.9174 43.2192 34.5129 42.1992 33.3803C41.6563 32.7655 40.5705 31.552 39.7808 30.6945C39.0076 29.8208 38.1192 28.85 37.8066 28.5102C37.494 28.1705 37.0169 27.6365 36.7537 27.3291L36.2437 26.779L34.4669 28.4617Z" fill="white"/>
<path d="M136.122 28.2514C135.398 29.0442 134.592 29.9179 134.329 30.2253C134.065 30.5327 133.621 31.0504 133.325 31.3579C129.788 35.2733 130.002 34.6747 131.631 36.3574C132.387 37.134 133.259 38.0077 133.572 38.3151C133.884 38.6064 134.543 39.3344 135.053 39.9331C135.563 40.5156 136.221 41.2598 136.5 41.5672C137.257 42.36 139.462 45.0782 139.988 45.8548C140.235 46.2108 140.909 47.1492 141.502 47.9582C142.094 48.751 142.884 49.8836 143.229 50.4499C143.591 51.0162 144.019 51.6634 144.167 51.906C144.331 52.1326 144.529 52.4723 144.627 52.6503C145.022 53.4593 145.598 53.7991 145.861 53.3784C145.911 53.2813 146.108 53.2166 146.289 53.2166C146.47 53.2166 146.898 53.071 147.227 52.893C148.132 52.4238 149.645 51.7604 149.843 51.7604C149.941 51.7604 150.468 51.5339 151.011 51.275C151.57 51 152.064 50.7897 152.113 50.7897C152.179 50.7897 152.458 50.6926 152.738 50.5631C153.034 50.4337 153.692 50.1748 154.235 49.9645C154.762 49.7542 155.239 49.4953 155.272 49.382C155.354 49.1717 155.074 48.5083 154.531 47.6832C154.383 47.4405 153.923 46.7124 153.528 46.0652C152.771 44.8517 151.488 42.9101 151.241 42.6189C151.175 42.5218 150.863 42.085 150.55 41.6481C149.793 40.5641 147.194 37.1502 146.371 36.1632C145.565 35.2248 142.538 31.7623 142.176 31.374C141.205 30.3385 137.619 26.8437 137.537 26.8437C137.471 26.8437 136.829 27.4747 136.122 28.2514Z" fill="white"/>
<path d="M85.7303 59.3487C85.7303 63.3127 85.7633 64.0408 85.9607 63.9599C86.3062 63.8305 86.8162 62.2449 87.0465 60.6431C87.2933 58.9927 87.0794 57.0835 86.4871 55.6597C85.7962 53.9932 85.7303 54.2845 85.7303 59.3487Z" fill="white"/>
<path d="M22.9507 155.44C21.4372 155.941 20.4171 156.977 20.1868 158.255C20.0717 158.886 19.94 158.967 18.8542 159.064C18.4429 159.113 18.3607 159.177 18.3607 159.517C18.3607 159.873 18.4429 159.938 19.1339 160.002C19.5617 160.051 19.973 160.148 20.0388 160.229C20.1046 160.294 20.1868 162.3 20.2033 164.662C20.2197 167.041 20.2526 169.063 20.2526 169.16C20.2526 169.451 20.7297 169.565 21.0917 169.387C21.3878 169.225 21.4042 168.998 21.4042 165.018C21.4042 162.688 21.4701 160.65 21.5688 160.423L21.7333 160.002H25.6323C27.7875 160.002 29.6465 160.067 29.7782 160.148C29.9262 160.245 30.0414 160.666 30.0907 161.281C30.1565 162.106 30.1236 162.284 29.8769 162.365C29.7124 162.429 29.4656 162.397 29.3175 162.3C27.7381 161.167 25.4678 161.54 24.4807 163.077C24.1188 163.643 23.9543 165.115 24.1846 165.924C24.7275 167.898 27.3433 168.82 29.0049 167.607C29.7946 167.041 30.0414 167.202 30.0907 168.367C30.1401 169.435 30.3704 169.694 30.9627 169.387C31.2588 169.225 31.2753 168.998 31.2753 164.792C31.2753 161.216 31.3246 160.326 31.5056 160.18C31.6537 160.051 32.4927 160.002 34.0885 160.035L36.4575 160.083V160.731V161.378L35.635 161.459C34.6972 161.572 34.1708 161.847 33.924 162.381C33.6114 163.044 33.7101 163.53 34.2859 164.096C34.7466 164.549 34.8124 164.695 34.6808 164.986C34.5821 165.18 34.4504 165.342 34.3846 165.342C34.1872 165.342 33.743 166.232 33.743 166.636C33.743 167.186 34.3353 168.157 34.8617 168.448C35.2401 168.675 35.7337 168.74 36.9182 168.74C38.3824 168.74 38.4976 168.723 39.1721 168.238C39.863 167.753 39.8959 167.736 40.1098 168.028C40.2414 168.206 40.3072 168.464 40.2743 168.61C40.1592 169.031 40.5376 169.419 40.9982 169.354L41.393 169.306L41.4753 164.856C41.5247 162.413 41.6234 160.31 41.6892 160.197C41.7714 160.067 42.2485 160.002 43.0382 160.002C44.0747 160.002 44.2885 160.051 44.4366 160.31C44.5353 160.504 44.6011 162.3 44.6011 164.986V169.354L45.0618 169.435C45.9008 169.597 45.9173 169.532 45.9173 164.775C45.9173 161.184 45.9666 160.326 46.1476 160.18C46.2957 160.067 46.8386 160.002 47.5953 160.035L48.7963 160.083L48.8786 164.695C48.9279 167.235 48.9937 169.322 49.0102 169.354C49.0266 169.387 49.3228 169.387 49.6682 169.354L50.277 169.306L50.3592 164.695L50.4415 160.083H54.5544H58.6673L58.7167 161.119C58.7825 162.462 58.6838 162.737 58.2889 162.381C57.8941 162.025 56.6931 161.62 56.035 161.62C55.377 161.62 54.1596 162.106 53.7812 162.527C53.4357 162.931 52.827 164.436 52.827 164.937C52.827 165.536 53.4521 166.96 53.8634 167.3C54.3076 167.688 55.0315 168.011 55.7554 168.141C56.3312 168.254 57.6638 167.898 58.108 167.51C58.5851 167.089 58.7331 167.251 58.7825 168.286L58.8318 169.306L59.457 169.354C59.786 169.387 60.0822 169.387 60.0986 169.354C60.1151 169.322 60.1809 167.235 60.2302 164.695L60.3125 160.083L61.5628 160.035C62.4677 160.002 62.8625 160.051 62.9941 160.213C63.1257 160.358 63.208 161.847 63.2244 164.856L63.2738 169.29L63.8002 169.403C64.1457 169.468 64.3925 169.435 64.5077 169.306C64.6064 169.193 64.6886 167.3 64.7051 164.598L64.7544 160.083L69.5912 160.035C73.0132 160.002 74.4938 160.051 74.6419 160.18C74.9216 160.407 74.9545 161.96 74.6748 162.235C74.5432 162.365 73.6713 162.429 71.8616 162.429C69.5419 162.429 69.147 162.462 68.5548 162.769C67.5019 163.271 67.1399 163.918 67.1399 165.261V166.377L67.8967 167.073L68.6699 167.769H69.9696C71.1212 167.769 71.3351 167.72 71.8287 167.348C72.6184 166.766 72.9803 165.649 72.7171 164.662C72.4209 163.611 72.5525 163.4 73.5396 163.4C74.8393 163.4 74.8722 163.481 74.8722 166.555C74.8722 168.917 74.9051 169.225 75.1684 169.354C75.3164 169.435 75.629 169.451 75.8593 169.387L76.2706 169.29L76.3529 164.695C76.4022 162.154 76.468 160.067 76.4845 160.035C76.5009 160.019 77.5868 160.002 78.9029 160.002C81.6668 160.002 81.6997 160.019 81.4694 161.475C81.3048 162.478 80.8442 162.963 79.7584 163.255C78.7877 163.53 78.6726 163.708 78.87 164.727C79.0839 165.908 79.4952 166.62 80.3013 167.235C80.9594 167.753 81.0416 167.769 82.5552 167.769C83.8713 167.769 84.1839 167.72 84.5294 167.445C84.7597 167.267 85.1216 167.122 85.3355 167.122C85.6316 167.122 85.7303 167.235 85.8126 167.639C85.862 167.931 85.8949 168.319 85.8784 168.497C85.7962 169.225 85.8949 169.387 86.3555 169.387C87.1945 169.387 87.211 169.322 87.211 164.759C87.211 162.429 87.2604 160.407 87.3097 160.261C87.392 160.051 87.6716 160.002 88.6258 160.002C89.7939 160.002 89.8597 160.019 90.0078 160.423C90.1065 160.65 90.1723 162.688 90.1723 165.018C90.1723 168.998 90.1888 169.225 90.4849 169.387C90.8468 169.565 91.3075 169.451 91.3404 169.16C91.3568 169.063 91.3733 167.089 91.3897 164.759C91.4062 161.442 91.4555 160.488 91.6365 160.278C91.8175 160.035 92.2452 160.002 94.4497 160.002C96.5062 160.002 97.082 160.051 97.2465 160.229C97.3781 160.407 97.4275 161.103 97.3781 162.559C97.3288 164.355 97.2794 164.711 97.0162 165.002C96.3417 165.73 95.1078 165.115 95.1078 164.031C95.1078 163.675 95.0255 163.562 94.6143 163.481C93.9562 163.336 93.7917 163.481 93.7917 164.161C93.7917 164.792 94.2852 165.698 94.8281 166.07C95.3875 166.458 97.263 166.393 97.8059 165.973C98.5956 165.358 98.7272 164.889 98.7272 162.543C98.7272 161.087 98.793 160.326 98.9246 160.197C99.0398 160.083 99.5498 160.002 100.076 160.002C100.833 160.002 101.047 160.067 101.195 160.31C101.294 160.504 101.359 162.3 101.359 164.986V169.354L101.853 169.419C102.116 169.468 102.412 169.419 102.511 169.322C102.61 169.225 102.676 167.51 102.676 164.662V160.164L103.054 160.083C103.251 160.035 103.909 160.002 104.485 160.035L105.555 160.083L105.637 164.695C105.686 167.235 105.752 169.322 105.769 169.354C105.785 169.387 106.081 169.387 106.427 169.354L107.035 169.306L107.085 164.775C107.118 161.41 107.167 160.229 107.331 160.132C107.595 159.97 109.602 159.97 109.865 160.132C110.029 160.229 110.079 161.41 110.112 164.775L110.161 169.29L110.638 169.403C111.543 169.646 111.543 169.597 111.592 164.63L111.642 160.083L115.047 160.035L118.453 160.002L118.716 160.391C119.045 160.892 118.913 161.426 118.42 161.523C118.222 161.572 117.466 161.718 116.758 161.847C115.393 162.106 114.866 162.429 114.422 163.271C113.961 164.144 114.274 165.973 114.949 166.361C115.294 166.555 115.228 167.186 114.817 167.688C114.537 168.044 114.455 168.351 114.455 169.144C114.455 170.228 114.751 170.794 115.64 171.361C116.215 171.733 117.68 171.749 118.305 171.393C118.93 171.021 119.308 171.183 119.193 171.781C119.078 172.331 119.423 172.671 119.983 172.59L120.361 172.542L120.41 168.788C120.443 165.164 120.443 165.034 120.114 164.856C119.835 164.711 119.703 164.759 119.374 165.083C119.144 165.309 118.963 165.552 118.963 165.617C118.963 165.892 117.976 166.313 117.334 166.313C116.791 166.313 116.528 166.199 116.084 165.795C115.179 165.002 115.294 163.886 116.38 163.077C116.577 162.931 117.301 162.818 118.354 162.769L120.032 162.672L120.081 161.54C120.114 160.925 120.213 160.326 120.312 160.213C120.443 160.051 121.381 160.002 124.326 160.002C128.702 160.002 128.505 159.938 128.505 161.459C128.505 162.381 128.274 162.591 127.649 162.219C126.892 161.734 126.021 161.604 125.066 161.863C123.767 162.203 123.092 163.06 122.961 164.533C122.681 167.494 125.412 169.095 127.896 167.397C128.307 167.122 128.505 167.478 128.505 168.513C128.505 169.322 128.521 169.354 128.998 169.419C129.262 169.468 129.558 169.419 129.656 169.322C129.755 169.225 129.821 168.141 129.821 166.636V164.096L130.364 163.481C130.874 162.915 130.989 162.85 131.779 162.85C132.568 162.834 132.683 162.882 133.21 163.433C133.703 163.983 133.769 164.144 133.769 164.953C133.769 165.762 133.72 165.908 133.21 166.41C132.782 166.83 132.519 166.96 132.075 166.96C131.631 166.96 131.466 167.041 131.384 167.283C131.055 168.303 132.881 168.335 134.131 167.348C136.04 165.86 135.365 162.478 133.045 161.815C132.272 161.604 131.121 161.815 130.495 162.3C130.265 162.478 130.035 162.543 129.952 162.462C129.87 162.381 129.821 161.815 129.854 161.2L129.903 160.083L133.736 160.035L137.553 160.002L137.701 160.358C137.767 160.569 137.849 162.624 137.849 164.937C137.866 167.251 137.882 169.193 137.882 169.257C137.882 169.338 138.145 169.387 138.458 169.387C138.902 169.387 139.034 169.322 139.034 169.095C139.034 168.95 139.034 167.024 139.034 164.84C139.034 162.543 139.1 160.682 139.182 160.423L139.363 160.002H142.291C144.348 160.002 145.285 160.067 145.417 160.197C145.73 160.504 145.647 161.653 145.253 162.429C144.808 163.287 144.348 163.546 142.933 163.691L141.913 163.805L141.864 165.487C141.831 166.911 141.864 167.283 142.143 167.833C142.637 168.804 142.834 169.015 143.624 169.322C145.401 170.018 147.589 168.869 147.589 167.219C147.589 166.377 146.552 166.474 146.174 167.364C145.68 168.529 144.611 168.756 143.706 167.866C143.147 167.316 143.13 167.283 143.18 166.038L143.229 164.775H146.437H149.645L149.695 166.911C149.727 168.966 149.76 169.079 150.122 169.306C150.336 169.451 150.632 169.516 150.78 169.451C151.011 169.371 151.044 168.885 151.044 164.937C151.044 159.954 151.027 160.002 152.212 160.002C152.837 160.002 152.87 159.97 152.82 159.549L152.771 159.113L136.615 159.064L120.476 159.032L120.197 158.207C119.835 157.139 119.325 156.394 118.716 156.022C116.396 154.631 112.218 154.971 110.901 156.669C110.77 156.847 110.49 157.43 110.309 157.964L109.964 158.951H100.767H91.5871L90.8468 157.899C89.6952 156.216 89.0371 155.683 87.9842 155.553C86.7504 155.391 86.4871 155.472 86.4213 156.006C86.3884 156.249 86.4213 156.443 86.5036 156.459C87.6058 156.524 88.0994 156.637 88.4778 156.896C89.2346 157.43 89.8433 158.19 89.8433 158.627V159.032H82.95C77.6361 159.032 76.0238 158.983 75.8922 158.821C75.81 158.724 75.6455 158.336 75.5467 157.98C75.3329 157.171 74.3293 156.168 73.3093 155.747C72.3058 155.327 71.1706 155.149 69.3774 155.149C65.6428 155.149 63.7344 156.103 63.2738 158.239C63.208 158.546 63.0599 158.838 62.9612 158.902C62.8625 158.967 62.2044 159.032 61.5135 159.032C60.2631 159.032 60.2302 159.016 59.9835 158.546C59.8518 158.287 59.7367 157.948 59.7367 157.802C59.7367 157.284 58.6015 156.152 57.6309 155.699C56.8247 155.31 56.4463 155.229 54.8505 155.181C51.8892 155.068 50.1453 155.78 49.3063 157.43C49.1582 157.721 49.0431 158.109 49.0431 158.304C49.0431 158.514 48.9444 158.757 48.8128 158.854C48.6647 158.983 46.1805 159.016 39.8959 158.999C31.3411 158.951 31.193 158.951 31.1436 158.627C30.9791 157.802 29.9427 156.119 29.5807 156.119C29.482 156.119 29.2846 156.022 29.153 155.909C28.2482 155.165 24.6452 154.89 22.9507 155.44ZM28.0014 156.669C29.0872 157.203 29.6794 157.883 29.5972 158.514L29.5478 158.951H25.5994H21.651L21.6017 158.433C21.5194 157.673 22.4407 156.734 23.5923 156.394C24.9249 155.99 26.8498 156.103 28.0014 156.669ZM56.216 156.378C57.2525 156.718 58.0422 157.3 58.3712 157.996C58.8647 158.999 58.7331 159.032 54.357 159.032C51.0831 159.032 50.5073 158.999 50.425 158.789C50.1289 158.045 51.1818 156.815 52.465 156.394C53.485 156.055 55.196 156.055 56.216 156.378ZM71.9603 156.443C73.2271 156.831 73.8358 157.268 74.1648 158.029C74.5926 159.032 74.5761 159.048 69.3774 158.999L64.7544 158.951L64.7051 158.368C64.6557 157.851 64.738 157.705 65.3303 157.203C65.6922 156.896 66.3832 156.524 66.8603 156.394C68.1435 156.022 70.6441 156.038 71.9603 156.443ZM116.692 156.394C118.19 156.961 119.292 158.207 118.798 158.789C118.617 158.999 118.107 159.032 115.113 158.999L111.642 158.951L111.592 158.562C111.527 158.093 111.987 157.22 112.448 156.928C113.715 156.136 115.459 155.909 116.692 156.394ZM40.1427 160.358C40.3566 160.957 40.225 165.487 39.9782 166.232C39.8137 166.652 39.5176 167.024 39.0405 167.348C38.4317 167.769 38.2014 167.833 37.2143 167.833C36.1614 167.85 36.0298 167.817 35.5692 167.38C34.5821 166.442 35.1579 165.326 36.6385 165.277C38.004 165.245 38.0534 164.209 36.7043 164.209C35.964 164.209 35.0591 163.562 35.0591 163.028C35.0591 162.446 35.7008 161.944 36.4411 161.944C37.6256 161.944 37.8559 161.815 37.8559 161.184C37.8559 160.213 38.0863 160.002 39.1063 160.002C39.8795 160.002 40.0276 160.051 40.1427 160.358ZM85.6316 160.358C85.9936 160.941 85.8949 164.436 85.4671 165.261C85.0065 166.199 84.0523 166.782 82.9665 166.798C81.5681 166.798 80.6632 166.183 80.2848 164.986C80.0545 164.258 80.219 163.967 80.9594 163.821C82.1768 163.594 82.9336 162.543 82.9336 161.087C82.9336 160.617 82.9829 160.164 83.0487 160.116C83.0981 160.051 83.6574 160.002 84.2661 160.002C85.2532 160.002 85.4178 160.051 85.6316 160.358ZM149.53 160.197C149.662 160.326 149.727 160.941 149.727 161.896V163.4H148.181C147.325 163.4 146.585 163.336 146.536 163.255C146.486 163.174 146.552 162.85 146.684 162.527C146.815 162.219 146.931 161.604 146.931 161.167C146.931 160.747 147.013 160.31 147.128 160.197C147.243 160.083 147.77 160.002 148.329 160.002C148.888 160.002 149.415 160.083 149.53 160.197ZM29.1694 163.158C29.7946 163.627 30.0578 164.646 29.7946 165.568C29.5643 166.393 29.3011 166.685 28.4456 167.024C27.9191 167.251 27.7546 167.251 27.0472 167.041C26.093 166.766 25.7804 166.474 25.4349 165.52C25.221 164.905 25.221 164.775 25.4514 164.242C25.731 163.546 26.1259 163.093 26.5865 162.899C27.1459 162.656 28.6923 162.818 29.1694 163.158ZM57.746 162.98C58.4699 163.352 58.7496 163.918 58.7496 164.986C58.7496 165.811 58.6838 165.989 58.3054 166.345C57.3676 167.202 56.4463 167.38 55.4921 166.895C54.6367 166.458 54.3076 165.892 54.3076 164.873C54.3241 163.918 54.505 163.562 55.2947 163.028C55.7883 162.688 57.1044 162.656 57.746 162.98ZM127.238 162.98C128.028 163.287 128.406 163.967 128.406 165.002C128.406 165.795 128.357 165.908 127.797 166.41C127.271 166.879 127.073 166.96 126.366 166.96C125.659 166.96 125.445 166.879 124.935 166.426C124.392 165.924 124.342 165.811 124.342 164.953C124.342 164.128 124.408 163.967 124.885 163.481C125.609 162.753 126.333 162.591 127.238 162.98ZM70.8909 163.724C72.388 164.63 71.7629 166.782 69.9861 166.798C68.2422 166.814 67.617 164.436 69.1635 163.675C69.8709 163.336 70.2493 163.336 70.8909 163.724ZM119.177 167.397C119.423 168.206 119.16 169.646 118.683 170.196C118.321 170.616 118.173 170.681 117.4 170.681C116.577 170.681 116.479 170.633 116.018 170.082C115.738 169.743 115.508 169.306 115.508 169.095C115.508 168.206 116.495 167.283 117.433 167.283C117.696 167.283 118.058 167.17 118.239 167.041C118.7 166.701 119.012 166.814 119.177 167.397Z" fill="white"/>
<path d="M154.054 161.637C153.61 161.798 153.413 162.478 153.659 163.012C153.873 163.465 154.646 163.546 155.058 163.141C155.798 162.429 155.025 161.281 154.054 161.637Z" fill="white"/>
<path d="M153.972 167.72C153.659 167.801 153.445 168.367 153.544 168.853C153.577 169.015 153.807 169.241 154.054 169.354C154.449 169.549 154.564 169.532 154.926 169.322C155.502 168.95 155.485 168.06 154.91 167.801C154.465 167.607 154.433 167.591 153.972 167.72Z" fill="white"/>
</svg>
